<?xml version="1.0" encoding="utf-8"?>
<!-- Generator: Adobe Illustrator 23.0.3, SVG Export Plug-In . SVG Version: 6.00 Build 0)  -->
<svg version="1.1" id="Layer_1" xmlns="http://www.w3.org/2000/svg" xmlns:xlink="http://www.w3.org/1999/xlink" x="0px" y="0px"
	 viewBox="0 0 1366 768" style="enable-background:new 0 0 1366 768;" xml:space="preserve">
<style type="text/css">
	.st0{fill:#FFFFFF;}
	.st1{font-family:'Impact';}
	.st2{font-size:72px;}
</style>
<rect width="1366" height="768"/>
<text transform="matrix(1 0 0 1 720.5156 241.7998)" class="st0 st1 st2">D</text>
<text transform="matrix(1 0 0 1 798.9238 241.7998)" class="st0 st1 st2">A</text>
<text transform="matrix(1 0 0 1 912.6113 241.7998)" class="st0 st1 st2">T</text>
<text transform="matrix(1 0 0 1 1037.1719 241.7998)" class="st0 st1 st2">A</text>
<text transform="matrix(1 0 0 1 424.6675 328.1997)" class="st0 st1 st2">V</text>
<text transform="matrix(1 0 0 1 500.9878 328.1997)" class="st0 st1 st2">I</text>
<text transform="matrix(1 0 0 1 561.6118 328.1997)" class="st0 st1 st2">Z</text>
<text transform="matrix(1 0 0 1 654.8516 328.1997)" class="st0 st1 st2">U</text>
<text transform="matrix(1 0 0 1 757.8115 328.1997)" class="st0 st1 st2">A</text>
<text transform="matrix(1 0 0 1 833.3398 328.1997)" class="st0 st1 st2">L</text>
<text transform="matrix(1 0 0 1 912.3232 328.1997)" class="st0 st1 st2">I</text>
<text transform="matrix(1 0 0 1 375.6357 414.5996)" class="st0 st1 st2">Z</text>
<text transform="matrix(1 0 0 1 481.0435 414.5996)" class="st0 st1 st2">A</text>
<text transform="matrix(1 0 0 1 584.0039 414.5996)" class="st0 st1 st2">T</text>
<text transform="matrix(1 0 0 1 655.7158 414.5996)" class="st0 st1 st2">I</text>
<text transform="matrix(1 0 0 1 716.1953 414.5996)" class="st0 st1 st2">O</text>
<text transform="matrix(1 0 0 1 793.7393 414.5996)" class="st0 st1 st2">N</text>
<text transform="matrix(1 0 0 1 141.1318 673.7998)" class="st0 st1 st2">T</text>
<text transform="matrix(1 0 0 1 207.5156 673.7998)" class="st0 st1 st2">E</text>
<text transform="matrix(1 0 0 1 273.3955 673.7998)" class="st0 st1 st2">L</text>
<text transform="matrix(1 0 0 1 329.4116 673.7998)" class="st0 st1 st2">L</text>
<text transform="matrix(1 0 0 1 395.7954 673.7998)" class="st0 st1 st2">I</text>
<text transform="matrix(1 0 0 1 455.8438 673.7998)" class="st0 st1 st2">N</text>
<text transform="matrix(1 0 0 1 534.1797 673.7998)" class="st0 st1 st2">G</text>
<text transform="matrix(1 0 0 1 652.4756 673.7998)" class="st0 st1 st2">T</text>
<text transform="matrix(1 0 0 1 724.332 673.7998)" class="st0 st1 st2">H</text>
<text transform="matrix(1 0 0 1 800.292 673.7998)" class="st0 st1 st2">E</text>
<text transform="matrix(1 0 0 1 896.6279 673.7998)" class="st0 st1 st2">S</text>
<text transform="matrix(1 0 0 1 973.1641 673.7998)" class="st0 st1 st2">T</text>
<text transform="matrix(1 0 0 1 1042.5 673.7998)" class="st0 st1 st2">O</text>
<text transform="matrix(1 0 0 1 1118.3877 673.7998)" class="st0 st1 st2">R</text>
<text transform="matrix(1 0 0 1 1196.1475 673.7998)" class="st0 st1 st2">Y</text>
</svg>
