<svg id="Layer_1" data-name="Layer 1" xmlns="http://www.w3.org/2000/svg" viewBox="0 0 1366 768"><defs><style>.cls-1{font-size:72px;fill:#231f20;font-family:Impact;}.cls-2{letter-spacing:-0.05em;}.cls-3{letter-spacing:0.02em;}.cls-4{letter-spacing:-0.05em;}.cls-5{letter-spacing:-0.01em;}.cls-6{letter-spacing:-0.01em;}.cls-7{letter-spacing:0.02em;}.cls-8{letter-spacing:-0.02em;}.cls-9{letter-spacing:-0.02em;}.cls-10{letter-spacing:0.01em;}.cls-11{letter-spacing:0.02em;}.cls-12{letter-spacing:0.01em;}.cls-13{letter-spacing:-0.02em;}.cls-14{letter-spacing:-0.01em;}.cls-15{letter-spacing:-0.01em;}.cls-16{letter-spacing:-0.04em;}</style></defs><title>characters-all</title><text class="cls-1" transform="translate(-12 69)">04P5NA16QNBD3GXMCA13F8ZQIB4630WB898X5</text><text class="cls-1" transform="translate(-12 155.4)">217650QXZMP31POU981A100RSB5S2CC<tspan class="cls-2" x="1132.45" y="0">Y</tspan><tspan class="cls-3" x="1162.78" y="0">A</tspan><tspan x="1201.07" y="0">X83BD</tspan></text><text class="cls-1" transform="translate(-12 241.8)">GZH213043WRF6<tspan class="cls-4" x="487.79" y="0">Y</tspan><tspan x="518.33" y="0">A3EGEHD5A80TMBA23101NX32</tspan></text><text class="cls-1" transform="translate(-12 328.2)">MTUV<tspan class="cls-5" x="161.86" y="0">3</tspan><tspan x="199.39" y="0">7B</tspan><tspan class="cls-6" x="267.35" y="0">6</tspan><tspan class="cls-7" x="305.4" y="0">7</tspan><tspan x="335.11" y="0">134V5ICZS1U12A6LMI0S225TM1764FG</tspan></text><text class="cls-1" transform="translate(-12 414.6)">FBNCA1S88X1Z53A19T8IBO3N21MOPS<tspan class="cls-8" x="1072.58" y="0">6</tspan><tspan x="1110.49" y="0">70</tspan><tspan class="cls-3" x="1177.29" y="0">V</tspan><tspan x="1216.7" y="0">YB0</tspan><tspan class="cls-9" x="1329.13" y="0">2</tspan><tspan x="1363.91" y="0">4</tspan></text><text class="cls-1" transform="translate(-12 501)">C88N5800D7918BQQZGPHLNUTF1A99<tspan class="cls-10" x="1055.46" y="0">7</tspan><tspan x="1084.23" y="0">3MGGH</tspan><tspan class="cls-11" x="1293.38" y="0">A</tspan><tspan x="1331.74" y="0">Z5</tspan></text><text class="cls-1" transform="translate(-12 587.4)">090LN<tspan class="cls-12" x="182.57" y="0">L</tspan><tspan x="210.82" y="0">ZM36THWO</tspan><tspan class="cls-12" x="539.32" y="0">7</tspan><tspan x="568.38" y="0">33HBG4WQACD23LJA15</tspan><tspan class="cls-13" x="1242.5" y="0">K</tspan><tspan x="1279.91" y="0">QRT</tspan></text><text class="cls-1" transform="translate(-12 673.8)">S550TTE4LFL9IQNUG5HTKH4E19SOTPOAR6Y6<tspan class="cls-14" x="1281.23" y="0">6</tspan><tspan x="1319.29" y="0">2M</tspan></text><text class="cls-1" transform="translate(-12 760.2)">5IHMM<tspan class="cls-15" x="202.57" y="0">3</tspan><tspan x="240.03" y="0">754CLM</tspan><tspan class="cls-16" x="461.69" y="0">L</tspan><tspan x="486.48" y="0">WTPQABED400H03UVXOPPENWX</tspan></text></svg>