<?xml version="1.0" encoding="utf-8"?>
<!-- Generator: Adobe Illustrator 24.0.0, SVG Export Plug-In . SVG Version: 6.00 Build 0)  -->
<svg version="1.1" id="Layer_1" xmlns="http://www.w3.org/2000/svg" xmlns:xlink="http://www.w3.org/1999/xlink" x="0px" y="0px"
	 viewBox="0 0 1366 768" style="enable-background:new 0 0 1366 768;" xml:space="preserve">
<style type="text/css">
	.st0{fill:#363D3F;}
	.st1{font-family:'Impact';}
	.st2{font-size:72px;}
	.st3{letter-spacing:-2;}
	.st4{letter-spacing:-1;}
</style>
<title>characters-all-test</title>
<text transform="matrix(1 0 0 1 -12 69)" class="st0 st1 st2">04P5NA16QNBD3GXMCA13F8ZQIB4630WB898X5</text>
<text transform="matrix(1 0 0 1 -12 155.4)" class="st0 st1 st2">217650QXZMP31POU981A100RSB5S2CC</text>
<text transform="matrix(1 0 0 1 1120.45 155.4)" class="st0 st1 st2 st3">Y</text>
<text transform="matrix(1 0 0 1 1150.78 155.4)" class="st0 st1 st2">A</text>
<text transform="matrix(1 0 0 1 1189.0699 155.4)" class="st0 st1 st2">X83BD</text>
<text transform="matrix(1 0 0 1 -12 241.8)" class="st0 st1 st2">GZH213043WRF6</text>
<text transform="matrix(1 0 0 1 475.79 241.8)" class="st0 st1 st2 st3">Y</text>
<text transform="matrix(1 0 0 1 506.33 241.8)" class="st0 st1 st2">A3EGEHD5A80TMBA23101NX32</text>
<text transform="matrix(1 0 0 1 -12 328.2)" class="st0 st1 st2">MTUV</text>
<text transform="matrix(1 0 0 1 149.86 328.2)" class="st0 st1 st2">3</text>
<text transform="matrix(1 0 0 1 187.39 328.2)" class="st0 st1 st2">7B</text>
<text transform="matrix(1 0 0 1 255.35 328.2)" class="st0 st1 st2">6</text>
<text transform="matrix(1 0 0 1 293.4 328.2)" class="st0 st1 st2">7</text>
<text transform="matrix(1 0 0 1 323.11 328.2)" class="st0 st1 st2">134V5ICZS1U12A6LMI0S225TM1764FG</text>
<text transform="matrix(1 0 0 1 -12 414.6)" class="st0 st1 st2">FBNCA1S88X1Z53A19T8IBO3N21MOPS</text>
<text transform="matrix(1 0 0 1 1060.58 414.6)" class="st0 st1 st2">6</text>
<text transform="matrix(1 0 0 1 1098.49 414.6)" class="st0 st1 st2">70</text>
<text transform="matrix(1 0 0 1 1165.29 414.6)" class="st0 st1 st2">V</text>
<text transform="matrix(1 0 0 1 1204.7 414.6)" class="st0 st1 st2">YB0</text>
<text transform="matrix(1 0 0 1 1317.13 414.6)" class="st0 st1 st2">2</text>
<text transform="matrix(1 0 0 1 1351.91 414.6)" class="st0 st1 st2">4</text>
<text transform="matrix(1 0 0 1 -12 501)" class="st0 st1 st2">C88N5800D7918BQQZGPHLNUTF1A99</text>
<text transform="matrix(1 0 0 1 1043.46 501)" class="st0 st1 st2">7</text>
<text transform="matrix(1 0 0 1 1072.23 501)" class="st0 st1 st2">3MGGH</text>
<text transform="matrix(1 0 0 1 1281.38 501)" class="st0 st1 st2">A</text>
<text transform="matrix(1 0 0 1 1319.74 501)" class="st0 st1 st2">Z5</text>
<text transform="matrix(1 0 0 1 -12 587.4)" class="st0 st1 st2">090LN</text>
<text transform="matrix(1 0 0 1 170.57 587.4)" class="st0 st1 st2">L</text>
<text transform="matrix(1 0 0 1 198.82 587.4)" class="st0 st1 st2">ZM36THWO</text>
<text transform="matrix(1 0 0 1 527.32 587.4)" class="st0 st1 st2">7</text>
<text transform="matrix(1 0 0 1 556.38 587.4)" class="st0 st1 st2">33HBG4WQACD23LJA15</text>
<text transform="matrix(1 0 0 1 1230.5 587.4)" class="st0 st1 st2">K</text>
<text transform="matrix(1 0 0 1 1267.91 587.4)" class="st0 st1 st2">QRT</text>
<text transform="matrix(1 0 0 1 -12 673.8)" class="st0 st1 st2">S550TTE4LFL9IQNUG5HTKH4E19SOTPOAR6Y6</text>
<text transform="matrix(1 0 0 1 1269.23 673.8)" class="st0 st1 st2">6</text>
<text transform="matrix(1 0 0 1 1307.29 673.8)" class="st0 st1 st2">2M</text>
<text transform="matrix(1 0 0 1 -12 760.2)" class="st0 st1 st2">5IHMM</text>
<text transform="matrix(1 0 0 1 190.57 760.2)" class="st0 st1 st2">3</text>
<text transform="matrix(1 0 0 1 228.03 760.2)" class="st0 st1 st2">754CLM</text>
<text transform="matrix(1 0 0 1 449.69 760.2)" class="st0 st1 st2 st4">L</text>
<text transform="matrix(1 0 0 1 474.48 760.2)" class="st0 st1 st2">WTPQABED400H03UVXOPPENWX</text>
</svg>
