<?xml version="1.0" encoding="utf-8"?>
<!-- Generator: Adobe Illustrator 23.0.3, SVG Export Plug-In . SVG Version: 6.00 Build 0)  -->
<svg version="1.1" id="characters-selective" xmlns="http://www.w3.org/2000/svg" xmlns:xlink="http://www.w3.org/1999/xlink"
	 x="0px" y="0px" viewBox="0 0 1366 1500" style="enable-background:new 0 0 1366 1500;" xml:space="preserve">
<style type="text/css">
	.st0{fill:#FFFFFF;}
	.st1{font-family:'Impact';}
	.st2{font-size:72px;}
</style>
<title>characters-selective</title>
<text transform="matrix(1 0 0 1 720.52 236.8)" class="st0 st1 st2">D</text>
<text transform="matrix(1 0 0 1 798.92 236.8)" class="st0 st1 st2">A</text>
<text transform="matrix(1 0 0 1 912.61 236.8)" class="st0 st1 st2">T</text>
<text transform="matrix(1 0 0 1 1037.17 236.8)" class="st0 st1 st2">A</text>
<text transform="matrix(1 0 0 1 424.67 323.2)" class="st0 st1 st2">V</text>
<text transform="matrix(1 0 0 1 500.99 323.2)" class="st0 st1 st2">I</text>
<text transform="matrix(1 0 0 1 561.61 323.2)" class="st0 st1 st2">Z</text>
<text transform="matrix(1 0 0 1 654.85 323.2)" class="st0 st1 st2">U</text>
<text transform="matrix(1 0 0 1 757.81 323.2)" class="st0 st1 st2">A</text>
<text transform="matrix(1 0 0 1 833.34 323.2)" class="st0 st1 st2">L</text>
<text transform="matrix(1 0 0 1 912.32 323.2)" class="st0 st1 st2">I</text>
<text transform="matrix(1 0 0 1 375.64 409.6)" class="st0 st1 st2">Z</text>
<text transform="matrix(1 0 0 1 481.04 409.6)" class="st0 st1 st2">A</text>
<text transform="matrix(1 0 0 1 584 409.6)" class="st0 st1 st2">T</text>
<text transform="matrix(1 0 0 1 655.72 409.6)" class="st0 st1 st2">I</text>
<text transform="matrix(1 0 0 1 716.2 409.6)" class="st0 st1 st2">O</text>
<text transform="matrix(1 0 0 1 793.74 409.6)" class="st0 st1 st2">N</text>
<text transform="matrix(1 0 0 1 141.13 668.8)" class="st0 st1 st2">T</text>
<text transform="matrix(1 0 0 1 207.52 668.8)" class="st0 st1 st2">E</text>
<text transform="matrix(1 0 0 1 273.4 668.8)" class="st0 st1 st2">L</text>
<text transform="matrix(1 0 0 1 329.41 668.8)" class="st0 st1 st2">L</text>
<text transform="matrix(1 0 0 1 395.8 668.8)" class="st0 st1 st2">I</text>
<text transform="matrix(1 0 0 1 455.84 668.8)" class="st0 st1 st2">N</text>
<text transform="matrix(1 0 0 1 534.18 668.8)" class="st0 st1 st2">G</text>
<text transform="matrix(1 0 0 1 652.48 668.8)" class="st0 st1 st2">T</text>
<text transform="matrix(1 0 0 1 724.33 668.8)" class="st0 st1 st2">H</text>
<text transform="matrix(1 0 0 1 800.29 668.8)" class="st0 st1 st2">E</text>
<text transform="matrix(1 0 0 1 896.63 668.8)" class="st0 st1 st2">S</text>
<text transform="matrix(1 0 0 1 973.16 668.8)" class="st0 st1 st2">T</text>
<text transform="matrix(1 0 0 1 1042.5 668.8)" class="st0 st1 st2">O</text>
<text transform="matrix(1 0 0 1 1118.39 668.8)" class="st0 st1 st2">R</text>
<text transform="matrix(1 0 0 1 1196.15 668.8)" class="st0 st1 st2">Y</text>
</svg>
