<svg id="characters-selective" xmlns="http://www.w3.org/2000/svg" viewBox="0 0 1366 768"><defs><style>.cls-1{font-size:72px;fill:#fff;font-family:Impact;}</style></defs><title>characters-selective</title><text class="cls-1" transform="translate(720.52 241.8)">D</text><text class="cls-1" transform="translate(798.92 241.8)">A</text><text class="cls-1" transform="translate(912.61 241.8)">T</text><text class="cls-1" transform="translate(1037.17 241.8)">A</text><text class="cls-1" transform="translate(424.67 328.2)">V</text><text class="cls-1" transform="translate(500.99 328.2)">I</text><text class="cls-1" transform="translate(561.61 328.2)">Z</text><text class="cls-1" transform="translate(654.85 328.2)">U</text><text class="cls-1" transform="translate(757.81 328.2)">A</text><text class="cls-1" transform="translate(833.34 328.2)">L</text><text class="cls-1" transform="translate(912.32 328.2)">I</text><text class="cls-1" transform="translate(375.64 414.6)">Z</text><text class="cls-1" transform="translate(481.04 414.6)">A</text><text class="cls-1" transform="translate(584 414.6)">T</text><text class="cls-1" transform="translate(655.72 414.6)">I</text><text class="cls-1" transform="translate(716.2 414.6)">O</text><text class="cls-1" transform="translate(793.74 414.6)">N</text><text class="cls-1" transform="translate(141.13 673.8)">T</text><text class="cls-1" transform="translate(207.52 673.8)">E</text><text class="cls-1" transform="translate(273.4 673.8)">L</text><text class="cls-1" transform="translate(329.41 673.8)">L</text><text class="cls-1" transform="translate(395.8 673.8)">I</text><text class="cls-1" transform="translate(455.84 673.8)">N</text><text class="cls-1" transform="translate(534.18 673.8)">G</text><text class="cls-1" transform="translate(652.48 673.8)">T</text><text class="cls-1" transform="translate(724.33 673.8)">H</text><text class="cls-1" transform="translate(800.29 673.8)">E</text><text class="cls-1" transform="translate(896.63 673.8)">S</text><text class="cls-1" transform="translate(973.16 673.8)">T</text><text class="cls-1" transform="translate(1042.5 673.8)">O</text><text class="cls-1" transform="translate(1118.39 673.8)">R</text><text class="cls-1" transform="translate(1196.15 673.8)">Y</text></svg>