<?xml version="1.0" encoding="utf-8"?>
<!-- Generator: Adobe Illustrator 23.0.3, SVG Export Plug-In . SVG Version: 6.00 Build 0)  -->
<svg version="1.1" id="Layer_1" xmlns="http://www.w3.org/2000/svg" xmlns:xlink="http://www.w3.org/1999/xlink" x="0px" y="0px"
	 viewBox="0 0 1366 768" style="enable-background:new 0 0 1366 768;" xml:space="preserve">
<style type="text/css">
	.st0{clip-path:url(#SVGID_2_);}
	.st1{fill:#77787B;}
	.st2{font-family:'Impact';}
	.st3{font-size:72px;}
	.st4{letter-spacing:-3;}
	.st5{letter-spacing:1;}
	.st6{letter-spacing:-1;}
	.st7{letter-spacing:-2;}
	.st8{fill:#FFFFFF;}
</style>
<rect width="1366" height="768"/>
<g>
	<defs>
		<rect id="SVGID_1_" width="1366" height="768"/>
	</defs>
	<clipPath id="SVGID_2_">
		<use xlink:href="#SVGID_1_"  style="overflow:visible;"/>
	</clipPath>
	<g class="st0">
		<text transform="matrix(1 0 0 1 -12 69)" class="st1 st2 st3">04P5NA16QNBD3GXMCA13F8ZQIB4630WB898X5</text>
	</g>
	<g class="st0">
		<text transform="matrix(1 0 0 1 -12 155.3999)"><tspan x="0" y="0" class="st1 st2 st3">217650QXZMP31POU981A100RSB5S2CC</tspan><tspan x="1132.45" y="0" class="st1 st2 st3 st4">Y</tspan><tspan x="1162.78" y="0" class="st1 st2 st3 st5">A</tspan><tspan x="1201.07" y="0" class="st1 st2 st3">X83BD</tspan></text>
	</g>
	<g class="st0">
		<text transform="matrix(1 0 0 1 -12 241.7998)"><tspan x="0" y="0" class="st1 st2 st3">GZH213043WRF6</tspan><tspan x="487.79" y="0" class="st1 st2 st3 st4">Y</tspan><tspan x="518.33" y="0" class="st1 st2 st3">A3EGEHD5A80TMBA23101NX32</tspan></text>
	</g>
	<g class="st0">
		<text transform="matrix(1 0 0 1 -12 328.2002)"><tspan x="0" y="0" class="st1 st2 st3">MTUV</tspan><tspan x="161.86" y="0" class="st1 st2 st3">3</tspan><tspan x="199.39" y="0" class="st1 st2 st3">7B</tspan><tspan x="267.35" y="0" class="st1 st2 st3">6</tspan><tspan x="305.4" y="0" class="st1 st2 st3 st5">7</tspan><tspan x="335.11" y="0" class="st1 st2 st3">134V5ICZS1U12A6LMI0S225TM1764FG</tspan></text>
	</g>
	<g class="st0">
		<text transform="matrix(1 0 0 1 -12 414.5996)"><tspan x="0" y="0" class="st1 st2 st3">FBNCA1S88X1Z53A19T8IBO3N21MOPS</tspan><tspan x="1072.58" y="0" class="st1 st2 st3 st6">6</tspan><tspan x="1110.49" y="0" class="st1 st2 st3">70</tspan><tspan x="1177.29" y="0" class="st1 st2 st3 st5">V</tspan><tspan x="1216.7" y="0" class="st1 st2 st3">YB0</tspan><tspan x="1329.13" y="0" class="st1 st2 st3 st6">2</tspan><tspan x="1363.91" y="0" class="st1 st2 st3">4</tspan></text>
	</g>
	<g class="st0">
		<text transform="matrix(1 0 0 1 -12 501)"><tspan x="0" y="0" class="st1 st2 st3">C88N5800D7918BQQZGPHLNUTF1A99</tspan><tspan x="1055.46" y="0" class="st1 st2 st3">7</tspan><tspan x="1084.23" y="0" class="st1 st2 st3">3MGGH</tspan><tspan x="1293.38" y="0" class="st1 st2 st3 st5">A</tspan><tspan x="1331.74" y="0" class="st1 st2 st3">Z5</tspan></text>
	</g>
	<g class="st0">
		<text transform="matrix(1 0 0 1 -12 587.4004)"><tspan x="0" y="0" class="st1 st2 st3">090LN</tspan><tspan x="182.57" y="0" class="st1 st2 st3">L</tspan><tspan x="210.82" y="0" class="st1 st2 st3">ZM36THWO</tspan><tspan x="539.32" y="0" class="st1 st2 st3">7</tspan><tspan x="568.38" y="0" class="st1 st2 st3">33HBG4WQACD23LJA15</tspan><tspan x="1242.5" y="0" class="st1 st2 st3 st6">K</tspan><tspan x="1279.91" y="0" class="st1 st2 st3">QRT</tspan></text>
	</g>
	<g class="st0">
		<text transform="matrix(1 0 0 1 -12 673.7998)"><tspan x="0" y="0" class="st1 st2 st3">S550TTE4LFL9IQNUG5HTKH4E19SOTPOAR6Y6</tspan><tspan x="1281.23" y="0" class="st1 st2 st3">6</tspan><tspan x="1319.29" y="0" class="st1 st2 st3">2M</tspan></text>
	</g>
	<g class="st0">
		<text transform="matrix(1 0 0 1 -12 760.2002)"><tspan x="0" y="0" class="st1 st2 st3">5IHMM</tspan><tspan x="202.57" y="0" class="st1 st2 st3">3</tspan><tspan x="240.03" y="0" class="st1 st2 st3">754CLM</tspan><tspan x="461.69" y="0" class="st1 st2 st3 st7">L</tspan><tspan x="486.48" y="0" class="st1 st2 st3">WTPQABED400H03UVXOPPENWX</tspan></text>
	</g>
</g>
<text transform="matrix(1 0 0 1 720.5156 241.7998)" class="st8 st2 st3">D</text>
<text transform="matrix(1 0 0 1 798.9238 241.7998)" class="st8 st2 st3">A</text>
<text transform="matrix(1 0 0 1 912.6113 241.7998)" class="st8 st2 st3">T</text>
<text transform="matrix(1 0 0 1 1037.1719 241.7998)" class="st8 st2 st3">A</text>
<text transform="matrix(1 0 0 1 424.6675 328.1997)" class="st8 st2 st3">V</text>
<text transform="matrix(1 0 0 1 500.9878 328.1997)" class="st8 st2 st3">I</text>
<text transform="matrix(1 0 0 1 561.6118 328.1997)" class="st8 st2 st3">Z</text>
<text transform="matrix(1 0 0 1 654.8516 328.1997)" class="st8 st2 st3">U</text>
<text transform="matrix(1 0 0 1 757.8115 328.1997)" class="st8 st2 st3">A</text>
<text transform="matrix(1 0 0 1 833.3398 328.1997)" class="st8 st2 st3">L</text>
<text transform="matrix(1 0 0 1 912.3232 328.1997)" class="st8 st2 st3">I</text>
<text transform="matrix(1 0 0 1 375.6357 414.5996)" class="st8 st2 st3">Z</text>
<text transform="matrix(1 0 0 1 481.0435 414.5996)" class="st8 st2 st3">A</text>
<text transform="matrix(1 0 0 1 584.0039 414.5996)" class="st8 st2 st3">T</text>
<text transform="matrix(1 0 0 1 655.7158 414.5996)" class="st8 st2 st3">I</text>
<text transform="matrix(1 0 0 1 716.1953 414.5996)" class="st8 st2 st3">O</text>
<text transform="matrix(1 0 0 1 793.7393 414.5996)" class="st8 st2 st3">N</text>
<text transform="matrix(1 0 0 1 141.1318 673.7998)" class="st8 st2 st3">T</text>
<text transform="matrix(1 0 0 1 207.5156 673.7998)" class="st8 st2 st3">E</text>
<text transform="matrix(1 0 0 1 273.3955 673.7998)" class="st8 st2 st3">L</text>
<text transform="matrix(1 0 0 1 329.4116 673.7998)" class="st8 st2 st3">L</text>
<text transform="matrix(1 0 0 1 395.7954 673.7998)" class="st8 st2 st3">I</text>
<text transform="matrix(1 0 0 1 455.8438 673.7998)" class="st8 st2 st3">N</text>
<text transform="matrix(1 0 0 1 534.1797 673.7998)" class="st8 st2 st3">G</text>
<text transform="matrix(1 0 0 1 652.4756 673.7998)" class="st8 st2 st3">T</text>
<text transform="matrix(1 0 0 1 724.332 673.7998)" class="st8 st2 st3">H</text>
<text transform="matrix(1 0 0 1 800.292 673.7998)" class="st8 st2 st3">E</text>
<text transform="matrix(1 0 0 1 896.6279 673.7998)" class="st8 st2 st3">S</text>
<text transform="matrix(1 0 0 1 973.1641 673.7998)" class="st8 st2 st3">T</text>
<text transform="matrix(1 0 0 1 1042.5 673.7998)" class="st8 st2 st3">O</text>
<text transform="matrix(1 0 0 1 1118.3877 673.7998)" class="st8 st2 st3">R</text>
<text transform="matrix(1 0 0 1 1196.1475 673.7998)" class="st8 st2 st3">Y</text>
</svg>
